
<svg xmlns="http://www.w3.org/2000/svg" viewBox="0 0 150 43" id="logo-shazam">
 <path d="M50.174216,26.5241253 C50.174216,25.2858846 51.7100174,23.945187 51.8647213,24.0733907 C52.9385017,25.0554895 55.0149826,26.0075944 56.7810105,26.0075944 C58.3680314,26.0075944 59.0851045,25.5430883 59.0851045,24.6934401 C59.0851045,23.6617056 57.7797909,23.6617056 56.1130662,23.300187 C53.3493031,22.7318969 50.5573171,21.5467426 50.5573171,18.0929401 C50.5573171,14.6643537 53.0665505,12.5480636 57.6256098,12.5480636 C61.9787456,12.5480636 63.8754355,14.0692549 63.8754355,15.720508 C63.8754355,17.1647241 62.1580139,18.4008414 62.0560976,18.2991809 C60.9551394,17.2701006 59.2398084,16.4929154 57.6773519,16.4929154 C56.1919861,16.4929154 55.4495645,16.9552981 55.4495645,17.7810574 C55.4495645,18.7626253 56.7810105,18.6869772 58.5211672,19.0723846 C61.772561,19.7930327 64.25723,21.2112364 64.25723,24.2822858 C64.25723,27.917113 61.772561,29.9524463 56.7810105,29.9524463 C51.9146341,29.9524463 50.174216,28.2762426 50.174216,26.5241253" id="Fill-1" style="fill: black;"></path>
 <path d="M65.9225958,27.3223062 L65.9225958,15.1793185 C65.9225958,13.5803556 66.6652787,12.7800778 68.0725087,12.7800778 L68.8149303,12.7800778 C70.3002962,12.7800778 71.0688502,13.5803556 71.0688502,15.1793185 L71.0688502,19.045337 L76.3705923,19.045337 L76.3705923,15.1793185 C76.3705923,13.5803556 77.1124913,12.7800778 78.5194599,12.7800778 L79.2885366,12.7800778 C80.74777,12.7800778 81.5158014,13.5803556 81.5158014,15.1793185 L81.5158014,27.3223062 C81.5158014,28.8960531 80.74777,29.7220778 79.2885366,29.7220778 L78.5194599,29.7220778 C77.1124913,29.7220778 76.3705923,28.8960531 76.3705923,27.3223062 L76.3705923,23.3790469 L71.0688502,23.3790469 L71.0688502,27.3223062 C71.0688502,28.8960531 70.3002962,29.7220778 68.8149303,29.7220778 L68.0725087,29.7220778 C66.6652787,29.7220778 65.9225958,28.8960531 65.9225958,27.3223062" id="Fill-3" style="fill: black;"></path>
 <path d="M99.8687979,27.5554617 L99.8687979,27.3224123 C99.8687979,25.8280296 100.379948,25.2860173 101.224808,24.3591284 L107.522979,17.1645914 L102.325505,17.1645914 C100.840923,17.1645914 100.071063,16.6217827 100.071063,15.1539432 L100.071063,14.9208938 C100.071063,13.5042827 100.840923,12.9121037 102.325505,12.9121037 L111.595714,12.9121037 C113.464181,12.9121037 114.206864,13.9164988 114.206864,14.9208938 L114.206864,15.1794247 C114.206864,16.6472642 113.670627,17.2407704 112.850854,18.1185543 L106.422282,25.3117642 L112.108171,25.3117642 C113.593014,25.3117642 114.361307,25.8797889 114.361307,27.3481593 L114.361307,27.5554617 C114.361307,28.9749926 113.593014,29.5923877 112.108171,29.5923877 L102.455122,29.5923877 C100.610958,29.5923877 99.8687979,28.5598568 99.8687979,27.5554617" id="Fill-5" style="fill: black;"></path>
 <path d="M93.3151568,23.3992463 C93.3151568,25.1574685 91.9813589,26.3373142 90.2550523,26.3373142 C89.0132404,26.3373142 88.2094077,25.6809006 88.2094077,24.6677463 C88.2094077,22.9740241 90.4787456,22.2700981 92.1862369,22.2273636 L93.3151568,22.2273636 L93.3151568,23.3992463 Z M90.3909408,12.4753883 C87.0763066,12.4753883 83.8952091,14.0764747 83.8952091,16.186129 C83.8952091,18.8085981 87.1207317,18.7440981 87.1207317,18.7440981 C87.4690767,17.3240364 88.6301394,16.5975488 90.1405923,16.5975488 C92.4569686,16.5975488 93.3151568,17.7397031 93.3151568,19.3872401 L92.1812718,19.3872401 C85.5478223,19.3872401 83.0482578,22.0513821 83.0482578,25.0908451 C83.0482578,28.0281167 85.4882404,29.9939068 88.6972997,29.9939068 C90.9347561,29.9939068 93.0776132,29.1654932 93.4818815,27.5859068 C93.685453,28.7933574 94.8133275,29.8633142 96.3091463,29.8633142 C97.6358885,29.8633142 98.2659408,29.4091599 98.3236934,29.2459191 L98.3236934,19.0294377 C98.3236934,14.8398574 95.5212544,12.4753883 90.3909408,12.4753883 L90.3909408,12.4753883 Z" id="Fill-7" style="fill: black;"></path>
 <path d="M125.682073,23.3992463 C125.682073,25.1574685 124.347491,26.3373142 122.622491,26.3373142 C121.379634,26.3373142 120.576585,25.6809006 120.576585,24.6677463 C120.576585,22.9740241 122.845662,22.2700981 124.553415,22.2273636 L125.682073,22.2273636 L125.682073,23.3992463 Z M122.757334,12.4753883 C119.4427,12.4753883 116.262648,14.0764747 116.262648,16.186129 C116.262648,18.8085981 119.487648,18.7440981 119.487648,18.7440981 C119.837561,17.3240364 120.997578,16.5975488 122.505941,16.5975488 C124.824669,16.5975488 125.682073,17.7397031 125.682073,19.3872401 L124.548972,19.3872401 C117.913955,19.3872401 115.41622,22.0513821 115.41622,25.0908451 C115.41622,28.0281167 117.855157,29.9939068 121.064216,29.9939068 C123.302456,29.9939068 125.446098,29.1654932 125.849321,27.5859068 C126.053676,28.7933574 127.181028,29.8633142 128.674756,29.8633142 C130.003589,29.8633142 130.633641,29.4091599 130.691132,29.2459191 L130.691132,19.0294377 C130.691132,14.8398574 127.887909,12.4753883 122.757334,12.4753883 L122.757334,12.4753883 Z" id="Fill-9" style="fill: black;"></path>
 <path d="M132.585601,27.3223062 L132.585601,15.2552321 C132.585601,13.6047753 133.406159,12.7800778 134.865653,12.7800778 L136.324103,12.7800778 C137.682726,12.7800778 138.143702,13.1163802 138.604939,14.1728 L141.292395,20.8518679 L144.008336,14.1728 C144.494922,13.037016 145.03142,12.7800778 146.209469,12.7800778 L147.643354,12.7800778 C149.1802,12.7800778 149.999974,13.6047753 149.999974,15.2552321 L149.999974,27.3223062 C149.999974,28.8960531 149.461646,29.7220778 148.003197,29.7220778 L147.183423,29.7220778 C145.77358,29.7220778 145.184817,28.8960531 145.184817,27.3223062 L145.184817,20.1824481 L143.444399,25.0794049 C143.214434,25.7252012 143.187517,26.3420654 141.26757,26.3420654 C139.347099,26.3420654 139.398057,25.7485593 139.116873,25.0794049 L137.401542,20.3857691 L137.401542,27.3223062 C137.401542,28.8960531 136.889347,29.7220778 135.404242,29.7220778 L134.583162,29.7220778 C133.173841,29.7220778 132.585601,28.8960531 132.585601,27.3223062" id="Fill-11" style="fill: black;"></path>
 <path d="M21.5007963,0 C9.62722222,0 0,9.6245679 0,21.4997346 C0,33.3719815 9.62722222,43 21.5007963,43 C33.3741049,43 43,33.3719815 43,21.4997346 C43,9.6245679 33.3741049,0 21.5007963,0" id="Fill-13"></path>
 <path d="M32.4760912,29.5723299 C30.4801714,31.7675356 26.9034559,35.182559 26.7518408,35.3296311 C26.2821973,35.7762848 25.6775541,36 25.0749877,36 C24.4324407,36 23.7950859,35.7480614 23.3179136,35.2506575 C22.3895305,34.280707 22.4248381,32.7478434 23.3945,31.821393 C23.4298077,31.7861786 26.9974366,28.3809945 28.874972,26.3113697 C29.7628552,25.3336513 30.2096526,24.0783602 30.13047,22.7829351 C30.0463548,21.41009 29.3830385,20.121656 28.2602038,19.1550715 C26.7863696,17.8842447 23.875307,17.6017524 22.0551464,19.2314558 C20.9709943,20.1995938 19.657083,21.6257784 19.6448811,21.6402785 C18.7333729,22.6252469 17.1985292,22.6894615 16.210175,21.7847612 C15.2233785,20.8785074 15.1561383,19.3433134 16.0653099,18.3573092 C16.1260598,18.2910232 17.5505671,16.7449542 18.8117766,15.6178333 C22.2690692,12.5231059 27.9330889,12.4617396 31.4373718,15.4837078 C33.5592049,17.3117512 34.8170394,19.801101 34.9816353,22.4890499 C35.1418177,25.099061 34.2497807,27.6161163 32.4760912,29.5723299 M17.7831821,29.745036 C15.5336184,29.745036 13.2871701,29.0026847 11.5625479,27.5151337 C9.44149358,25.6873492 8.18365906,23.1998119 8.01776509,20.5103094 C7.86069804,17.9013341 8.74910046,15.3845377 10.5256457,13.4293598 C12.5194886,11.2323415 16.0967233,7.81654137 16.2475596,7.67205861 C17.2172215,6.74534933 18.7538825,6.78237628 19.6825252,7.74999644 C20.6088314,8.71891126 20.5758603,10.2538463 19.6056792,11.179261 C19.5690735,11.2139575 16.0040407,14.6188827 14.1252072,16.686695 C13.237324,17.6685563 12.7897478,18.9209991 12.8689304,20.2151296 C12.9538245,21.5890104 13.6171407,22.8777034 14.7386774,23.8450646 C16.2143289,25.1187396 19.124353,25.397089 20.945552,23.7704929 C22.0284061,22.7992477 23.3436155,21.3740988 23.3568559,21.3601166 C24.2647294,20.3730767 25.8032077,20.3098978 26.7897446,21.2174463 C27.7773199,22.1226644 27.8432621,23.6588942 26.9346097,24.6448983 C26.8743791,24.7075593 25.4477948,26.2528516 24.1878834,27.381526 C22.4326266,28.9542648 20.1064765,29.745036 17.7831821,29.745036" id="Fill-15" style="
    fill: white;"></path>
</svg>

<svg xmlns="http://www.w3.org/2000/svg" viewBox="0 0 150 43" id="logo-shazam">
 <path d="M50.174216,26.5241253 C50.174216,25.2858846 51.7100174,23.945187 51.8647213,24.0733907 C52.9385017,25.0554895 55.0149826,26.0075944 56.7810105,26.0075944 C58.3680314,26.0075944 59.0851045,25.5430883 59.0851045,24.6934401 C59.0851045,23.6617056 57.7797909,23.6617056 56.1130662,23.300187 C53.3493031,22.7318969 50.5573171,21.5467426 50.5573171,18.0929401 C50.5573171,14.6643537 53.0665505,12.5480636 57.6256098,12.5480636 C61.9787456,12.5480636 63.8754355,14.0692549 63.8754355,15.720508 C63.8754355,17.1647241 62.1580139,18.4008414 62.0560976,18.2991809 C60.9551394,17.2701006 59.2398084,16.4929154 57.6773519,16.4929154 C56.1919861,16.4929154 55.4495645,16.9552981 55.4495645,17.7810574 C55.4495645,18.7626253 56.7810105,18.6869772 58.5211672,19.0723846 C61.772561,19.7930327 64.25723,21.2112364 64.25723,24.2822858 C64.25723,27.917113 61.772561,29.9524463 56.7810105,29.9524463 C51.9146341,29.9524463 50.174216,28.2762426 50.174216,26.5241253" id="Fill-1" style="fill: black;"></path>
 <path d="M65.9225958,27.3223062 L65.9225958,15.1793185 C65.9225958,13.5803556 66.6652787,12.7800778 68.0725087,12.7800778 L68.8149303,12.7800778 C70.3002962,12.7800778 71.0688502,13.5803556 71.0688502,15.1793185 L71.0688502,19.045337 L76.3705923,19.045337 L76.3705923,15.1793185 C76.3705923,13.5803556 77.1124913,12.7800778 78.5194599,12.7800778 L79.2885366,12.7800778 C80.74777,12.7800778 81.5158014,13.5803556 81.5158014,15.1793185 L81.5158014,27.3223062 C81.5158014,28.8960531 80.74777,29.7220778 79.2885366,29.7220778 L78.5194599,29.7220778 C77.1124913,29.7220778 76.3705923,28.8960531 76.3705923,27.3223062 L76.3705923,23.3790469 L71.0688502,23.3790469 L71.0688502,27.3223062 C71.0688502,28.8960531 70.3002962,29.7220778 68.8149303,29.7220778 L68.0725087,29.7220778 C66.6652787,29.7220778 65.9225958,28.8960531 65.9225958,27.3223062" id="Fill-3" style="fill: black;"></path>
 <path d="M99.8687979,27.5554617 L99.8687979,27.3224123 C99.8687979,25.8280296 100.379948,25.2860173 101.224808,24.3591284 L107.522979,17.1645914 L102.325505,17.1645914 C100.840923,17.1645914 100.071063,16.6217827 100.071063,15.1539432 L100.071063,14.9208938 C100.071063,13.5042827 100.840923,12.9121037 102.325505,12.9121037 L111.595714,12.9121037 C113.464181,12.9121037 114.206864,13.9164988 114.206864,14.9208938 L114.206864,15.1794247 C114.206864,16.6472642 113.670627,17.2407704 112.850854,18.1185543 L106.422282,25.3117642 L112.108171,25.3117642 C113.593014,25.3117642 114.361307,25.8797889 114.361307,27.3481593 L114.361307,27.5554617 C114.361307,28.9749926 113.593014,29.5923877 112.108171,29.5923877 L102.455122,29.5923877 C100.610958,29.5923877 99.8687979,28.5598568 99.8687979,27.5554617" id="Fill-5" style="fill: black;"></path>
 <path d="M93.3151568,23.3992463 C93.3151568,25.1574685 91.9813589,26.3373142 90.2550523,26.3373142 C89.0132404,26.3373142 88.2094077,25.6809006 88.2094077,24.6677463 C88.2094077,22.9740241 90.4787456,22.2700981 92.1862369,22.2273636 L93.3151568,22.2273636 L93.3151568,23.3992463 Z M90.3909408,12.4753883 C87.0763066,12.4753883 83.8952091,14.0764747 83.8952091,16.186129 C83.8952091,18.8085981 87.1207317,18.7440981 87.1207317,18.7440981 C87.4690767,17.3240364 88.6301394,16.5975488 90.1405923,16.5975488 C92.4569686,16.5975488 93.3151568,17.7397031 93.3151568,19.3872401 L92.1812718,19.3872401 C85.5478223,19.3872401 83.0482578,22.0513821 83.0482578,25.0908451 C83.0482578,28.0281167 85.4882404,29.9939068 88.6972997,29.9939068 C90.9347561,29.9939068 93.0776132,29.1654932 93.4818815,27.5859068 C93.685453,28.7933574 94.8133275,29.8633142 96.3091463,29.8633142 C97.6358885,29.8633142 98.2659408,29.4091599 98.3236934,29.2459191 L98.3236934,19.0294377 C98.3236934,14.8398574 95.5212544,12.4753883 90.3909408,12.4753883 L90.3909408,12.4753883 Z" id="Fill-7" style="fill: black;"></path>
 <path d="M125.682073,23.3992463 C125.682073,25.1574685 124.347491,26.3373142 122.622491,26.3373142 C121.379634,26.3373142 120.576585,25.6809006 120.576585,24.6677463 C120.576585,22.9740241 122.845662,22.2700981 124.553415,22.2273636 L125.682073,22.2273636 L125.682073,23.3992463 Z M122.757334,12.4753883 C119.4427,12.4753883 116.262648,14.0764747 116.262648,16.186129 C116.262648,18.8085981 119.487648,18.7440981 119.487648,18.7440981 C119.837561,17.3240364 120.997578,16.5975488 122.505941,16.5975488 C124.824669,16.5975488 125.682073,17.7397031 125.682073,19.3872401 L124.548972,19.3872401 C117.913955,19.3872401 115.41622,22.0513821 115.41622,25.0908451 C115.41622,28.0281167 117.855157,29.9939068 121.064216,29.9939068 C123.302456,29.9939068 125.446098,29.1654932 125.849321,27.5859068 C126.053676,28.7933574 127.181028,29.8633142 128.674756,29.8633142 C130.003589,29.8633142 130.633641,29.4091599 130.691132,29.2459191 L130.691132,19.0294377 C130.691132,14.8398574 127.887909,12.4753883 122.757334,12.4753883 L122.757334,12.4753883 Z" id="Fill-9" style="fill: black;"></path>
 <path d="M132.585601,27.3223062 L132.585601,15.2552321 C132.585601,13.6047753 133.406159,12.7800778 134.865653,12.7800778 L136.324103,12.7800778 C137.682726,12.7800778 138.143702,13.1163802 138.604939,14.1728 L141.292395,20.8518679 L144.008336,14.1728 C144.494922,13.037016 145.03142,12.7800778 146.209469,12.7800778 L147.643354,12.7800778 C149.1802,12.7800778 149.999974,13.6047753 149.999974,15.2552321 L149.999974,27.3223062 C149.999974,28.8960531 149.461646,29.7220778 148.003197,29.7220778 L147.183423,29.7220778 C145.77358,29.7220778 145.184817,28.8960531 145.184817,27.3223062 L145.184817,20.1824481 L143.444399,25.0794049 C143.214434,25.7252012 143.187517,26.3420654 141.26757,26.3420654 C139.347099,26.3420654 139.398057,25.7485593 139.116873,25.0794049 L137.401542,20.3857691 L137.401542,27.3223062 C137.401542,28.8960531 136.889347,29.7220778 135.404242,29.7220778 L134.583162,29.7220778 C133.173841,29.7220778 132.585601,28.8960531 132.585601,27.3223062" id="Fill-11" style="fill: black;"></path>
 <path d="M21.5007963,0 C9.62722222,0 0,9.6245679 0,21.4997346 C0,33.3719815 9.62722222,43 21.5007963,43 C33.3741049,43 43,33.3719815 43,21.4997346 C43,9.6245679 33.3741049,0 21.5007963,0" id="Fill-13"></path>
 <path d="M32.4760912,29.5723299 C30.4801714,31.7675356 26.9034559,35.182559 26.7518408,35.3296311 C26.2821973,35.7762848 25.6775541,36 25.0749877,36 C24.4324407,36 23.7950859,35.7480614 23.3179136,35.2506575 C22.3895305,34.280707 22.4248381,32.7478434 23.3945,31.821393 C23.4298077,31.7861786 26.9974366,28.3809945 28.874972,26.3113697 C29.7628552,25.3336513 30.2096526,24.0783602 30.13047,22.7829351 C30.0463548,21.41009 29.3830385,20.121656 28.2602038,19.1550715 C26.7863696,17.8842447 23.875307,17.6017524 22.0551464,19.2314558 C20.9709943,20.1995938 19.657083,21.6257784 19.6448811,21.6402785 C18.7333729,22.6252469 17.1985292,22.6894615 16.210175,21.7847612 C15.2233785,20.8785074 15.1561383,19.3433134 16.0653099,18.3573092 C16.1260598,18.2910232 17.5505671,16.7449542 18.8117766,15.6178333 C22.2690692,12.5231059 27.9330889,12.4617396 31.4373718,15.4837078 C33.5592049,17.3117512 34.8170394,19.801101 34.9816353,22.4890499 C35.1418177,25.099061 34.2497807,27.6161163 32.4760912,29.5723299 M17.7831821,29.745036 C15.5336184,29.745036 13.2871701,29.0026847 11.5625479,27.5151337 C9.44149358,25.6873492 8.18365906,23.1998119 8.01776509,20.5103094 C7.86069804,17.9013341 8.74910046,15.3845377 10.5256457,13.4293598 C12.5194886,11.2323415 16.0967233,7.81654137 16.2475596,7.67205861 C17.2172215,6.74534933 18.7538825,6.78237628 19.6825252,7.74999644 C20.6088314,8.71891126 20.5758603,10.2538463 19.6056792,11.179261 C19.5690735,11.2139575 16.0040407,14.6188827 14.1252072,16.686695 C13.237324,17.6685563 12.7897478,18.9209991 12.8689304,20.2151296 C12.9538245,21.5890104 13.6171407,22.8777034 14.7386774,23.8450646 C16.2143289,25.1187396 19.124353,25.397089 20.945552,23.7704929 C22.0284061,22.7992477 23.3436155,21.3740988 23.3568559,21.3601166 C24.2647294,20.3730767 25.8032077,20.3098978 26.7897446,21.2174463 C27.7773199,22.1226644 27.8432621,23.6588942 26.9346097,24.6448983 C26.8743791,24.7075593 25.4477948,26.2528516 24.1878834,27.381526 C22.4326266,28.9542648 20.1064765,29.745036 17.7831821,29.745036" id="Fill-15" style="
    fill: white;"></path>
</svg>
        
<svg id="am-pill-black" xmlns="http://www.w3.org/2000/svg" viewBox="0 0 73 24" style="width:73px;height:24px;"><g fill="none" fill-rule="evenodd"><path fill="#242424" d="M11.993 0C5.37 0 0 5.371 0 12c0 6.627 5.368 12 11.993 12h49.014C67.63 24 73 18.629 73 12c0-6.627-5.368-12-11.993-12H11.993z"></path><g fill="#FFF"><path d="M18.286 7.88c.391-.492.657-1.153.587-1.828-.573.028-1.273.38-1.678.873-.363.421-.685 1.11-.601 1.757.643.056 1.286-.323 1.692-.802M18.866 8.809c-.935-.056-1.73.533-2.176.533-.446 0-1.13-.505-1.868-.492-.962.015-1.855.561-2.343 1.43-1.004 1.74-.265 4.32.711 5.737.474.7 1.046 1.472 1.799 1.445.711-.029.99-.463 1.855-.463.864 0 1.115.463 1.868.449.781-.015 1.27-.702 1.744-1.403.544-.799.766-1.57.78-1.613-.014-.014-1.506-.59-1.52-2.314-.014-1.444 1.172-2.131 1.228-2.174-.67-.995-1.716-1.107-2.078-1.135M32.659 17.374V9.632h-.05l-3.156 7.742h-1.204l-3.163-7.742h-.05v7.742h-1.48V6.854h1.878l3.388 8.384h.058l3.38-8.384h1.886v10.52H32.66M42.327 17.374h-1.501v-1.298h-.037c-.42.919-1.196 1.437-2.364 1.437-1.661 0-2.677-1.087-2.677-2.844V9.704h1.567v4.66c0 1.166.551 1.793 1.632 1.793 1.132 0 1.814-.788 1.814-1.983v-4.47h1.566v7.67M46.621 9.566c1.777 0 2.93.991 2.981 2.406H48.13c-.087-.744-.631-1.21-1.509-1.21-.849 0-1.414.415-1.414 1.028 0 .48.348.809 1.175.998l1.24.285c1.56.364 2.155.977 2.155 2.085 0 1.4-1.299 2.362-3.098 2.362-1.908 0-3.054-.94-3.199-2.399h1.552c.146.802.69 1.196 1.647 1.196.943 0 1.523-.394 1.523-1.02 0-.496-.282-.788-1.117-.978l-1.24-.291c-1.45-.336-2.169-1.036-2.169-2.15 0-1.372 1.19-2.312 2.945-2.312M50.987 17.374h1.567v-7.67h-1.567v7.67zm-.123-9.696c0-.503.406-.904.907-.904.5 0 .9.4.9.904a.902.902 0 0 1-.9.904.908.908 0 0 1-.907-.904zM59.169 12.344c-.16-.817-.77-1.466-1.792-1.466-1.211 0-2.01 1.014-2.01 2.661 0 1.684.806 2.661 2.025 2.661.964 0 1.595-.532 1.777-1.421h1.509c-.167 1.633-1.466 2.741-3.301 2.741-2.183 0-3.605-1.502-3.605-3.98 0-2.436 1.422-3.974 3.59-3.974 1.966 0 3.163 1.269 3.301 2.778h-1.494"></path></g></g></svg>

<svg id="icon-play-rounded" viewBox="0 0 18 20"><path fill-rule="evenodd" d="M16.465 12.586L4.52 19.604A3 3 0 0 1 0 17.018V2.982A3 3 0 0 1 4.52.395l11.945 7.018a3 3 0 0 1 0 5.173z"></path></svg>

<svg id="icon-search" viewBox="0 0 32 32">
<path d="M21.688 14.875c0-2.25-.75-4.125-2.313-5.688s-3.438-2.313-5.688-2.313c-2.188 0-4.063.75-5.625 2.313s-2.375 3.438-2.375 
5.688c0 2.188.813 4.063 2.375 5.625s3.438 2.375 5.625 2.375c2.25 0 4.125-.813 5.688-2.375s2.313-3.438 2.313-5.625zm9.187 14.813c0 
.625-.25 1.188-.688 1.625s-1 .688-1.625.688-1.188-.25-1.625-.687l-6.125-6.125c-2.125 1.5-4.5 2.25-7.125 2.25-1.688 
0-3.313-.313-4.875-1s-2.875-1.563-4-2.688c-1.125-1.125-2-2.438-2.688-4-.625-1.563-1-3.188-1-4.875 0-1.75.375-3.375 
1-4.875.688-1.563 1.563-2.938 2.688-4.063s2.438-2 4-2.688c1.563-.626 3.188-.94 4.875-.94 1.75 0 3.375.314 4.938.94 
1.5.687 2.875 1.562 4 2.687s2 2.5 2.688 4.063c.625 1.5 1 3.125 1 4.875 0 2.625-.75 5-2.25 7.125l6.125 6.125c.438.438.688.938.688 1.563z">
</path>
</svg>

<svg id="icon-facebook_logo" viewbox="0 0 32 32">
<path d="M30.2 0H1.8C.8 0 0 .8 0 1.8v28.5c0 1 .8 1.8 1.8 1.8h15.3V19.6h-4.2v-4.8h4.2v-3.6c0-4.1 2.5-6.4 6.2-6.4 1.8 0 3.3.2 3.7.2v4.3h-2.6c-2 0-2.4 1-2.4 2.4v3.1h4.8l-.6 4.8H22V32h8.2c1 0 1.8-.8 1.8-1.8V1.8c0-1-.8-1.8-1.8-1.8z"></path>
</svg>

<svg id="icon-twitter" viewbox="0 0 32 32">
<path d="M30.063 7.313c-.813 1.125-1.75 2.125-2.875 2.938V11c0 1.564-.188 3.126-.688 4.626-.438 1.563-1.125 3.063-2.063 4.438-.875 1.438-2 2.688-3.25 3.813-1.313 1.063-2.813 1.938-4.625 2.563-1.813.688-3.75 1-5.75 1-3.25 0-6.188-.875-8.875-2.625.438.063.875.125 1.375.125 2.688 0 5.063-.875 7.188-2.5-1.25 0-2.375-.375-3.375-1.125s-1.688-1.688-2.063-2.875c.438.063.813.125 1.125.125.5 0 1-.063 1.5-.25-1.313-.25-2.438-.938-3.313-1.938C3.5 15.314 3.06 14.064 3.06 12.69v-.064c.814.438 1.69.688 2.626.688-.813-.5-1.438-1.188-1.875-2-.5-.875-.687-1.813-.687-2.75 0-1.063.25-2.063.75-2.938 1.438 1.75 3.188 3.188 5.25 4.25s4.313 1.688 6.688 1.813c-.124-.5-.187-.94-.187-1.376 0-1.563.563-2.938 1.688-4.063s2.5-1.687 4.126-1.687c1.625 0 3.063.625 4.188 1.813 1.313-.25 2.5-.688 3.688-1.375C28.874 6.377 28 7.44 26.75 8.19c1.124-.126 2.187-.44 3.312-.876z"></path></svg>

<svg id="icon-instagram" viewbox="0 0 32 32">
<path class="path1" d="M16 2.881c4.275 0 4.781 0.019 6.462 0.094 1.563 0.069 2.406 0.331 2.969 0.55 0.744 0.288 1.281 0.638 1.837 1.194 0.563 0.563 0.906 1.094 1.2 1.838 0.219 0.563 0.481 1.412 0.55 2.969 0.075 1.688 0.094 2.194 0.094 6.463s-0.019 4.781-0.094 6.463c-0.069 1.563-0.331 2.406-0.55 2.969-0.288 0.744-0.637 1.281-1.194 1.837-0.563 0.563-1.094 0.906-1.837 1.2-0.563 0.219-1.413 0.481-2.969 0.55-1.688 0.075-2.194 0.094-6.463 0.094s-4.781-0.019-6.463-0.094c-1.563-0.069-2.406-0.331-2.969-0.55-0.744-0.288-1.281-0.637-1.838-1.194-0.563-0.563-0.906-1.094-1.2-1.837-0.219-0.563-0.481-1.413-0.55-2.969-0.075-1.688-0.094-2.194-0.094-6.463s0.019-4.781 0.094-6.463c0.069-1.563 0.331-2.406 0.55-2.969 0.288-0.744 0.638-1.281 1.194-1.838 0.563-0.563 1.094-0.906 1.838-1.2 0.563-0.219 1.412-0.481 2.969-0.55 1.681-0.075 2.188-0.094 6.463-0.094zM16 0c-4.344 0-4.887 0.019-6.594 0.094-1.7 0.075-2.869 0.35-3.881 0.744-1.056 0.412-1.95 0.956-2.837 1.85-0.894 0.888-1.438 1.781-1.85 2.831-0.394 1.019-0.669 2.181-0.744 3.881-0.075 1.713-0.094 2.256-0.094 6.6s0.019 4.887 0.094 6.594c0.075 1.7 0.35 2.869 0.744 3.881 0.413 1.056 0.956 1.95 1.85 2.837 0.887 0.887 1.781 1.438 2.831 1.844 1.019 0.394 2.181 0.669 3.881 0.744 1.706 0.075 2.25 0.094 6.594 0.094s4.888-0.019 6.594-0.094c1.7-0.075 2.869-0.35 3.881-0.744 1.050-0.406 1.944-0.956 2.831-1.844s1.438-1.781 1.844-2.831c0.394-1.019 0.669-2.181 0.744-3.881 0.075-1.706 0.094-2.25 0.094-6.594s-0.019-4.887-0.094-6.594c-0.075-1.7-0.35-2.869-0.744-3.881-0.394-1.063-0.938-1.956-1.831-2.844-0.887-0.887-1.781-1.438-2.831-1.844-1.019-0.394-2.181-0.669-3.881-0.744-1.712-0.081-2.256-0.1-6.6-0.1v0z"></path>
<path class="path2" d="M16 7.781c-4.537 0-8.219 3.681-8.219 8.219s3.681 8.219 8.219 8.219 8.219-3.681 8.219-8.219c0-4.537-3.681-8.219-8.219-8.219zM16 21.331c-2.944 0-5.331-2.387-5.331-5.331s2.387-5.331 5.331-5.331c2.944 0 5.331 2.387 5.331 5.331s-2.387 5.331-5.331 5.331z"></path>
<path class="path3" d="M26.462 7.456c0 1.060-0.859 1.919-1.919 1.919s-1.919-0.859-1.919-1.919c0-1.060 0.859-1.919 1.919-1.919s1.919 0.859 1.919 1.919z"></path>
</svg>

<svg id="icon-snapchat" viewBox="0 0 27 27">
<g><g id="Snapchat-Icon">
<path d="M13.6660401,25.8403364 C13.5982644,25.8403364 13.5317056,25.8383788 13.4650939,25.8352572 L13.4649351,25.8352572 C13.4225026,25.8385375 13.3781124,25.8403364 13.3337222,25.8403364 C11.7759921,25.8403364 10.7761286,25.1335856 9.80933278,24.4500086 C9.14173418,23.978277 8.51180637,23.5329997 7.76950106,23.4093527 C7.40728993,23.3494074 7.04677187,23.3189322 6.69836984,23.3189322 C6.0707171,23.3189322 5.57554707,23.4158075 5.21407666,23.4864932 C4.99440085,23.5295077 4.80488284,23.5664378 4.66086608,23.5664378 C4.5103945,23.5664378 4.34733071,23.5338991 4.27648632,23.2917901 C4.2149009,23.0820082 4.170352,22.8788927 4.12749617,22.6823379 C4.01707627,22.1765333 3.93866598,21.8654846 3.72671479,21.8329459 C1.2560497,21.4513174 0.548928496,20.9309629 0.391261366,20.561715 C0.368934007,20.5089124 0.356235983,20.4560039 0.353220203,20.4036246 C0.345231029,20.2617771 0.445704143,20.1365428 0.585858582,20.1136335 C4.38383753,19.4882029 6.08695998,15.6064699 6.15764565,15.4416072 C6.15955035,15.4370571 6.16166669,15.4326657 6.16373012,15.4281156 C6.39620978,14.9570718 6.44171103,14.5481425 6.29949316,14.2129676 C6.03886622,13.5987007 5.18883934,13.3287619 4.62610524,13.1502488 C4.4884375,13.1067052 4.3579124,13.0654895 4.25495259,13.0248558 C3.13212982,12.5809541 3.03869353,12.1253066 3.08281916,11.8930915 C3.15805496,11.4973894 3.68687474,11.2216306 4.11453361,11.2216306 C4.2318316,11.2216306 4.33505595,11.2424236 4.42187869,11.2829515 C4.9269955,11.519558 5.38216675,11.6395014 5.77495896,11.6395014 C6.31769366,11.6395014 6.55456471,11.4114132 6.58355854,11.3815199 C6.56974944,11.1244907 6.55266001,10.8559804 6.53520023,10.5790048 C6.422082,8.78339839 6.28192756,6.55224977 6.8500054,5.27869088 C8.55259878,1.46113581 12.1631231,1.16458405 13.2291223,1.16458405 C13.256423,1.16458405 13.6964624,1.15992811 13.6964624,1.15992811 L13.7595822,1.15966356 C14.828068,1.15966356 18.4464757,1.45679732 20.1500215,5.27641582 C20.718258,6.55066252 20.5776803,8.78371584 20.4643505,10.5779466 L20.4596416,10.6559336 C20.4439278,10.9058202 20.428796,11.148617 20.416098,11.3810966 C20.44324,11.4088206 20.6611169,11.6185497 21.1531653,11.637438 L21.1536944,11.637438 C21.5275983,11.6230998 21.9573206,11.5038971 22.4288935,11.2830044 C22.5671432,11.218509 22.7206306,11.2048586 22.8251247,11.2048586 C22.9846966,11.2048586 23.1465435,11.2357572 23.280878,11.2918401 L23.2890259,11.2951733 C23.6704957,11.4303544 23.9203822,11.6977536 23.9257259,11.9771101 C23.9306993,12.2401708 23.7298589,12.6357143 22.744651,13.0249087 C22.6425377,13.0650133 22.5120126,13.1064935 22.3738158,13.1503017 C21.8105526,13.3290264 20.9607903,13.5987536 20.7003221,14.2128618 C20.5579455,14.547878 20.6035525,14.9565427 20.8359264,15.427851 C20.8379898,15.4324011 20.8403178,15.4367925 20.8421167,15.4416601 C20.9128023,15.6063641 22.6144433,19.486986 26.4140625,20.1131044 C26.5543756,20.1362254 26.6545313,20.2613538 26.6468067,20.4033601 C26.6436321,20.4565859 26.6306696,20.5101822 26.6079719,20.562297 C26.4512571,20.9288995 25.744665,21.4485661 23.2732062,21.8304592 C23.0713077,21.8614636 22.9930561,22.1245772 22.8725836,22.6762534 C22.8287754,22.8770409 22.7843852,23.0742836 22.7233289,23.2816846 C22.670685,23.4616791 22.5585191,23.5459093 22.3698477,23.5459093 L22.3391079,23.5459093 C22.2081595,23.5459093 22.0219747,23.5224709 21.786056,23.476176 C21.3676561,23.3943267 20.8985171,23.3189322 20.301657,23.3189322 C19.9530963,23.3189322 19.5924724,23.3494074 19.2299967,23.4093527 C18.4885379,23.5329997 17.8589805,23.9774305 17.1926517,24.4484743 C16.2239512,25.1335856 15.2242463,25.8403364 13.6660401,25.8403364 Z" id="Shape"></path>
</g></g></svg>